<svg width="24" height="24" viewBox="0 0 24 24" fill="none" xmlns="http://www.w3.org/2000/svg" id="icon-filter-reset" class="button-icon">
    <path fill="#200E32" d="M19.2971 12.4518L19.2998 12.4318V12.3444C19.2998 11.9892 19.0118 11.7012 18.6566 11.7012H18.5378C18.2338 11.7012 18.0686 11.9444 18.0431 12.1618C18.0348 12.2318 18.031 12.2601 18.0287 12.2768L18.0274 12.2862C18.0242 12.3105 18.0233 12.3271 18.0218 12.3531L18.0209 12.3681C17.999 12.743 17.9415 13.1135 17.8495 13.4797C17.0248 16.7589 13.631 18.7254 10.3745 17.8112C7.20953 16.9224 5.3253 13.6378 6.16347 10.4783C6.8961 7.71756 9.41299 5.85733 12.2638 5.97627C13.6797 6.03559 14.9263 6.52316 15.9695 7.47156C16.3663 7.83222 16.7305 8.21789 17.1036 8.61308L17.1859 8.70021H16.008C15.6575 8.70021 15.3735 8.9843 15.3735 9.33473C15.3735 9.68609 15.6592 9.96926 16.0088 9.96926L16.6346 9.96922C17.2172 9.96916 17.7549 9.9691 18.3845 9.96957C18.8848 9.97033 19.2995 9.56971 19.2995 9.06191V6.66919C19.2995 6.32167 19.0178 6.03996 18.6702 6.03996C18.3227 6.03996 18.041 6.32167 18.041 6.66919V7.76655C17.7119 7.41881 17.0361 6.75272 16.7394 6.46314C15.6397 5.48121 14.3314 4.9298 12.8765 4.75457C12.7882 4.74392 12.7015 4.73235 12.6127 4.72051L12.4767 4.70251L12.4574 4.7H11.5648L11.5395 4.70434C11.5169 4.70823 11.4979 4.71168 11.4806 4.71483C11.4522 4.71999 11.4284 4.72432 11.4007 4.72839C11.3175 4.74035 11.2284 4.7514 11.1362 4.76284C10.9272 4.78877 10.7016 4.81676 10.49 4.86208C8.86328 5.21113 7.49169 6.02012 6.4269 7.30226C4.92686 9.10838 4.40161 11.1964 4.86129 13.4964C5.18959 15.1383 6.02447 16.5059 7.30238 17.5781C8.87337 18.896 10.7038 19.4562 12.7398 19.2627C14.1867 19.1253 15.4839 18.5811 16.6054 17.6569C17.9971 16.51 18.8669 15.0406 19.1862 13.2596C19.2197 13.0724 19.2438 12.8774 19.2665 12.6924C19.2767 12.6096 19.2867 12.5289 19.2971 12.4518Z">
    </path>
</svg>