<svg class="icon-filter fixed-item-icon-search" xmlns="http://www.w3.org/2000/svg" role="presentation" viewBox="0 0 28 28" aria-labelledby="Filter" >
    <g fill="none">
        <path fill-rule="evenodd" clip-rule="evenodd"
              d="M20.592 22.9206C20.592 22.2888 20.7018 21.7766 20.8372 21.7766L27.2109 21.7766C27.3463 21.7766 27.456 22.2888 27.456 22.9206C27.456 23.5524 27.3463 24.0646 27.2109 24.0646L20.8372 24.0646C20.7018 24.0646 20.592 23.5524 20.592 22.9206Z"
              fill="#806D6E"
        ></path>
        <path fill-rule="evenodd"
              clip-rule="evenodd"
              d="M5.00058e-08 22.9206C2.23884e-08 22.2888 0.219508 21.7766 0.490285 21.7766L13.2377 21.7766C13.5085 21.7766 13.728 22.2888 13.728 22.9206C13.728 23.5524 13.5085 24.0646 13.2377 24.0646L0.490286 24.0646C0.219508 24.0646 7.76233e-08 23.5524 5.00058e-08 22.9206Z"
              fill="#806D6E"
        ></path>
        <path fill-rule="evenodd" clip-rule="evenodd"
              d="M20.176 23.008C20.176 21.5146 18.9654 20.304 17.472 20.304C15.9786 20.304 14.768 21.5146 14.768 23.008C14.768 24.5014 15.9786 25.712 17.472 25.712C18.9654 25.712 20.176 24.5014 20.176 23.008ZM22.464 23.008C22.464 20.251 20.229 18.016 17.472 18.016C14.715 18.016 12.48 20.251 12.48 23.008C12.48 25.765 14.715 28 17.472 28C20.229 28 22.464 25.765 22.464 23.008Z"
              fill="white"
        ></path>
        <path fill-rule="evenodd" clip-rule="evenodd"
              d="M13.728 6.90462C13.728 6.27281 13.9475 5.76062 14.2183 5.76062L26.9657 5.76062C27.2365 5.76062 27.456 6.27281 27.456 6.90462C27.456 7.53643 27.2365 8.04862 26.9657 8.04862L14.2183 8.04862C13.9475 8.04862 13.728 7.53643 13.728 6.90462Z"
              fill="#806D6E"
        ></path>
        <path fill-rule="evenodd" clip-rule="evenodd"
              d="M5.00058e-08 6.90462C2.23883e-08 6.27281 0.109754 5.76062 0.245143 5.76062L6.61885 5.76062C6.75424 5.76062 6.864 6.27281 6.864 6.90462C6.864 7.53643 6.75424 8.04862 6.61885 8.04862L0.245143 8.04862C0.109754 8.04862 7.76232e-08 7.53643 5.00058e-08 6.90462Z"
              fill="white"
        ></path>
        <path fill-rule="evenodd" clip-rule="evenodd"
              d="M12.2719 6.99201C12.2719 5.49863 11.0613 4.28801 9.56792 4.28801C8.07455 4.28801 6.86393 5.49863 6.86393 6.99201C6.86393 8.48539 8.07455 9.69601 9.56792 9.69601C11.0613 9.69601 12.2719 8.48539 12.2719 6.99201ZM14.5599 6.99201C14.5599 4.23501 12.3249 2.00001 9.56792 2.00001C6.81092 2.00001 4.57593 4.23501 4.57593 6.99201C4.57593 9.74901 6.81092 11.984 9.56792 11.984C12.3249 11.984 14.5599 9.74901 14.5599 6.99201Z"                          fill="white"
        ></path>
    </g>
</svg>