<svg viewBox="0 0 24 24" fill="none" xmlns="http://www.w3.org/2000/svg">
    <path d="M17.7124 10.5556C17.6645 10.7951 17.6324 11.0391 17.5655 11.2733C17.3402 12.0581 16.9139 12.7356 16.4078 13.366C15.5206 14.4713 14.4537 15.3823 13.3082 16.2056C12.9643 16.4528 12.6052 16.6783 12.2547 16.9161C12.0875 17.0297 11.9292 17.0258 11.7575 16.9172C10.2913 15.9914 8.93554 14.9331 7.79841 13.6145C7.23401 12.9602 6.75054 12.2524 6.48188 11.4211C6.40125 11.1718 6.36495 10.9082 6.30842 10.6514C6.30099 10.6193 6.29444 10.5875 6.2876 10.5556C6.2876 10.3846 6.2876 10.2135 6.2876 10.0424C6.30485 9.9365 6.31735 9.82968 6.33996 9.72496C6.61576 8.4349 7.3676 7.5465 8.62939 7.16032C9.87333 6.77949 10.9825 7.08683 11.9286 7.9791C11.9518 8.00112 11.9765 8.02194 12.0024 8.04485C12.0247 8.02402 12.0414 8.00945 12.0571 7.99398C12.8048 7.26356 13.698 6.9345 14.742 7.02554C16.0508 7.13979 17.2191 8.10703 17.5753 9.37983C17.6378 9.60327 17.6675 9.83593 17.7124 10.0644V10.5553V10.5556ZM7.00165 10.3007C6.99183 10.3024 6.98201 10.3045 6.9719 10.3063C7.02307 10.5753 7.05431 10.8499 7.12899 11.112C7.33309 11.8258 7.73742 12.4315 8.20572 12.9947C9.26698 14.2714 10.5615 15.277 11.9372 16.1871C11.9851 16.219 12.017 16.2181 12.0646 16.1868C13.2041 15.4365 14.2805 14.6082 15.2317 13.6255C15.7637 13.0759 16.2439 12.4857 16.5943 11.8005C16.8948 11.2135 17.0695 10.5985 16.9707 9.93084C16.8166 8.88922 16.0496 8.04842 15.0255 7.79434C14.0163 7.54382 12.9506 7.93031 12.327 8.77259C12.1268 9.04304 11.8762 9.04066 11.6707 8.77556C11.0726 8.00528 10.2857 7.64915 9.31339 7.74138C8.00995 7.86545 7.00344 8.9877 7.00165 10.3007Z" fill="currentColor">
    </path>
</svg>