<svg xmlns="http://www.w3.org/2000/svg" role="presentation" viewBox="0 0 31 31" aria-labelledby="Instagram" class="icon icon-instagram social-white-black">
<g fill="none">
    <path d="M15,9.82a5.19,5.19,0,1,0,3.66,1.52A5.14,5.14,0,0,0,15,9.82Zm7.1-1.57a.05.05,0,0,0,0-.05.09.09,0,0,0,0-.06l-.05,0-.06,0a.14.14,0,0,0,0,.06.08.08,0,0,0,0,.05l.06,0A.05.05,0,0,0,22.1,8.25Zm-11.82,2a6.66,6.66,0,1,1-2,4.72A6.64,6.64,0,0,1,10.28,10.28Zm12.88-1a1.54,1.54,0,0,0,.47-1.11,1.58,1.58,0,0,0-.47-1.12,1.53,1.53,0,0,0-1.11-.46A1.57,1.57,0,0,0,20.47,8.2a1.53,1.53,0,0,0,.46,1.11,1.58,1.58,0,0,0,1.12.47A1.54,1.54,0,0,0,23.16,9.31Z" class="icon-path-fill" style="fill:#fff;fill-opacity:0.6000000238418579;fill-rule:evenodd;"></path>
    <rect x="2.75" y="2.75" width="24.5" height="24.5" rx="7.25" class="icon-path-stroke" style="fill:none;stroke:#fff;stroke-width:1.5px;"></rect>
</g>
</svg>