<svg xmlns="http://www.w3.org/2000/svg" role="presentation" viewBox="0 0 97 60" aria-labelledby="Logotype" class="icon-logotype logotype-icon" >
    <g fill="none">
        <path d="M48.2337 60V48.8865H35.4147V37.773H48.1817V13.0475C43.9174 16.9515 39.705 20.8035 35.3887 24.7596V24.1597C35.3887 19.7616 35.3887 15.3895 35.4147 10.9913C35.4147 10.7311 35.5447 10.3927 35.7267 10.2365C39.159 6.93113 42.6173 3.62571 46.0755 0.346317C46.2576 0.164129 46.5696 0.0339943 46.8036 0.0339943C51.1719 0.00796743 55.5403 0.00796743 59.9086 0.0339943C60.0646 0.0339943 60.2206 0.0600212 60.4026 0.0600212V48.8605H77.902C82.6864 48.8605 85.9886 43.9935 84.1945 39.5428C83.1544 36.9141 80.6842 35.2484 77.85 35.2484H64.719C64.719 35.0402 64.693 34.858 64.693 34.6758V25.3061C64.693 24.8376 64.823 24.7335 65.291 24.7335C68.8273 24.7596 72.3896 24.7335 75.9258 24.7335C79.9041 24.7335 83.1804 21.1158 82.8424 17.1597C82.4783 13.594 80.0862 11.0694 76.5499 10.5489C76.3159 10.5228 76.1078 10.5228 75.8738 10.5228H64.667V0.58056C64.667 0.138102 64.797 0.0339943 65.239 0.0339943C68.8013 0.0600213 72.3636 0.0339943 75.9258 0.0339943C77.3039 0.0339943 78.682 -0.0701133 80.0341 0.0860482C85.3126 0.684667 89.2909 3.39147 91.735 8.07631C95.5313 15.3378 93.0091 24.0048 86.0146 28.2732C85.9106 28.3513 85.8066 28.4294 85.7286 28.4554C86.9247 29.054 88.1988 29.5485 89.3169 30.2773C93.7112 33.0882 96.2334 37.1223 96.7534 42.3017C97.4555 49.2249 93.9452 55.4193 87.7567 58.4644C86.1706 59.2452 84.4805 59.7137 82.7384 59.8959C82.5563 59.9219 82.4003 59.974 82.2183 60H48.2337Z" fill="white"></path>
        <path d="M0 51.3591C3.43226 51.3591 6.83853 51.3591 10.2708 51.333C12.897 51.307 15.4972 51.307 18.1234 51.2289C18.7214 51.2289 19.2935 51.0728 19.8915 50.9426C21.1916 50.6303 22.0237 49.7975 22.2057 48.5221C22.4137 47.1427 22.5697 45.7373 22.5697 44.3318C22.5957 32.4115 22.5957 20.4911 22.5957 8.57082C22.5957 8.41466 22.5957 8.2585 22.5957 8.05028C17.3173 8.05028 12.0909 8.05028 6.81252 8.05028C6.81252 5.5517 6.81252 3.10517 6.81252 0.632614C15.3152 0.632614 23.8178 0.632614 32.3725 0.632614C32.3725 0.840829 32.3725 1.04904 32.3725 1.23123C32.3725 16.5611 32.3725 31.8649 32.3725 47.1948C32.3725 50.344 31.5144 53.181 29.3043 55.5234C27.3541 57.5535 24.8839 58.6726 22.1537 59.1151C21.0096 59.2973 19.8135 59.3493 18.6434 59.3493C12.455 59.3754 6.26648 59.3493 0.052004 59.3493C0 56.6946 0 54.0398 0 51.3591Z" fill="white"></path>
        <path d="M17.6814 28.4813C17.6814 28.7936 17.6814 28.9498 17.6814 29.0799C17.6814 33.036 17.6814 37.0181 17.6554 40.9742C17.6554 41.2605 17.5253 41.5988 17.3173 41.781C15.9132 43.2385 14.5091 44.67 13.079 46.0755C12.923 46.2316 12.663 46.3878 12.455 46.3878C8.42465 46.4138 4.39434 46.4138 0.364028 46.3878C0.286022 46.3878 0.208016 46.3878 0 46.3618C5.92846 40.4016 11.7529 34.4935 17.6814 28.4813Z" fill="white"></path>
    </g>
</svg>