<svg xmlns="http://www.w3.org/2000/svg" role="presentation" viewBox="0 0 31 31" aria-labelledby="Phone" class="icon-phone">
<g fill="none">
    <path d="M3.49,7.69c.37-.62,2.4-2.84,3.85-2.77a1.93,1.93,0,0,1,1.13.6h0a19.58,19.58,0,0,1,2.88,3.9c.28,1.36-1.34,2.15-.84,3.52a11.48,11.48,0,0,0,6.55,6.55c1.37.5,2.16-1.12,3.52-.84a19.58,19.58,0,0,1,3.9,2.88h0a1.88,1.88,0,0,1,.6,1.13c.06,1.52-2.3,3.59-2.76,3.85-1.09.78-2.51.76-4.23,0-4.82-2-12.52-9.56-14.56-14.56C2.75,10.2,2.69,8.77,3.49,7.69Z" style="fill:none;stroke:#fff;stroke-linecap:round;stroke-linejoin:round;stroke-width:1.5px;"></path>
    <path d="M17,5.21a9.3,9.3,0,0,1,8.22,8.2" style="fill:none;stroke:#fff;stroke-linecap:round;stroke-linejoin:round;stroke-width:1.5px;opacity:0.4000000059604645;isolation:isolate;" ></path>
    <path d="M17,9.34a5.15,5.15,0,0,1,4.08,4.08" style="fill:none;stroke:#fff;stroke-linecap:round;stroke-linejoin:round;stroke-width:1.5px;opacity:0.4000000059604645;isolation:isolate;"></path>
</g>
</svg>