<!--<svg viewBox="0 0 24 24" fill="none" xmlns="http://www.w3.org/2000/svg">-->
<!--    <g fill="none">-->
<!--        <path fill="#200E32" fill-rule="evenodd" clip-rule="evenodd" d="M15.8506 17.3756C14.5277 17.0105 13.5603 15.8241 13.4732 14.4673C13.4627 14.303 13.4899 14.1545 13.5661 14.0047C14.306 12.5507 15.0427 11.095 15.7793 9.63951L15.78 9.63804L16.2539 8.70173C16.2709 8.66804 16.2873 8.63363 16.3075 8.59097L16.3306 8.54244L7.6887 7.00069C7.6821 7.04892 7.70449 7.08571 7.72599 7.12105C7.73315 7.13282 7.74021 7.14443 7.74607 7.15625C7.9348 7.52994 8.12331 7.90398 8.31171 8.27781L8.31198 8.27835C8.99013 9.62396 9.66826 10.9695 10.361 12.3075C10.5214 12.6173 10.5478 12.911 10.4908 13.2333C10.245 14.6271 9.19593 15.667 7.78502 15.9193C7.76235 15.9234 7.73877 15.9229 7.71519 15.9224C7.66734 15.9213 7.61951 15.9203 7.5794 15.9578H6.88881C6.38291 15.9238 5.92141 15.7546 5.49969 15.4845C4.75717 15.0083 4.2764 14.3401 4.05067 13.4926C4.03406 13.43 4.03058 13.3655 4.0271 13.301C4.02339 13.2323 4.01967 13.1634 4 13.0968V12.6302C4.06238 12.559 4.10088 12.4748 4.13928 12.3907C4.15373 12.3591 4.16816 12.3275 4.18385 12.2967C5.12026 10.4445 6.05626 8.59193 6.98597 6.73604C7.07266 6.56265 7.18322 6.49918 7.37628 6.50001L16.6246 8.04175C16.8185 8.04092 16.9278 8.10647 17.0144 8.27903C17.8239 9.89292 18.6383 11.5048 19.4525 13.1163L19.4597 13.1306L19.9292 14.0599C19.9343 14.0701 19.9385 14.0809 19.9428 14.0917C19.9549 14.1226 19.9671 14.1538 20 14.1719V14.6386C19.9657 15.1397 19.7952 15.5968 19.5226 16.0145C19.0552 16.7305 18.4006 17.2017 17.5723 17.4332C17.4725 17.4611 17.3699 17.4687 17.2673 17.4763C17.1941 17.4818 17.121 17.4872 17.0488 17.5L16.3586 17.4992C16.3035 17.4858 16.2479 17.4728 16.1926 17.4599C16.0782 17.4333 15.9637 17.4066 15.8506 17.3756ZM9.87771 12.4721H4.65498L4.78735 12.2105C5.61214 10.5805 6.43291 8.95849 7.26614 7.31139L8.55493 9.85819L8.55814 9.86453L8.55975 9.86772L8.58049 9.9087L8.5886 9.92473C9.01774 10.7728 9.44644 11.62 9.87771 12.4721ZM15.0061 12.2708L14.126 14.0101H19.3454L19.157 13.6379C18.3507 12.0448 17.5484 10.4595 16.7355 8.85314C16.1591 9.99199 15.5896 11.1176 15.0209 12.2417L15.0117 12.2599L15.0061 12.2708ZM4.75215 12.972H10.0083C9.93025 14.1823 8.92022 15.2539 7.70671 15.426C6.19027 15.6409 4.85391 14.7068 4.55029 13.2201C4.51651 13.0547 4.58379 12.972 4.75215 12.972ZM16.7452 14.5133L14.2182 14.5137C14.0518 14.5137 13.9858 14.5974 14.0201 14.7647C14.3241 16.2464 15.6387 17.1682 17.1631 16.969C18.3248 16.8172 19.3475 15.7847 19.4715 14.6456C19.4832 14.5382 19.4656 14.5096 19.3509 14.5104C18.6908 14.5145 18.0307 14.5141 17.3707 14.5136L17.3684 14.5136C17.1606 14.5135 16.9529 14.5133 16.7452 14.5133Z"></path>-->
<!--    </g>-->
<!--</svg>-->

<svg viewBox="0 0 24 24" fill="currentColor" xmlns="http://www.w3.org/2000/svg">
    <g fill="none">
        <path fill="currentColor" fill-rule="evenodd" clip-rule="evenodd" d="M15.8506 17.3756C14.5277 17.0105 13.5603 15.8241 13.4732 14.4673C13.4627 14.303 13.4899 14.1545 13.5661 14.0047C14.306 12.5507 15.0427 11.095 15.7793 9.63951L15.78 9.63804L16.2539 8.70173C16.2709 8.66804 16.2873 8.63363 16.3075 8.59097L16.3306 8.54244L7.6887 7.00069C7.6821 7.04892 7.70449 7.08571 7.72599 7.12105C7.73315 7.13282 7.74021 7.14443 7.74607 7.15625C7.9348 7.52994 8.12331 7.90398 8.31171 8.27781L8.31198 8.27835C8.99013 9.62396 9.66826 10.9695 10.361 12.3075C10.5214 12.6173 10.5478 12.911 10.4908 13.2333C10.245 14.6271 9.19593 15.667 7.78502 15.9193C7.76235 15.9234 7.73877 15.9229 7.71519 15.9224C7.66734 15.9213 7.61951 15.9203 7.5794 15.9578H6.88881C6.38291 15.9238 5.92141 15.7546 5.49969 15.4845C4.75717 15.0083 4.2764 14.3401 4.05067 13.4926C4.03406 13.43 4.03058 13.3655 4.0271 13.301C4.02339 13.2323 4.01967 13.1634 4 13.0968V12.6302C4.06238 12.559 4.10088 12.4748 4.13928 12.3907C4.15373 12.3591 4.16816 12.3275 4.18385 12.2967C5.12026 10.4445 6.05626 8.59193 6.98597 6.73604C7.07266 6.56265 7.18322 6.49918 7.37628 6.50001L16.6246 8.04175C16.8185 8.04092 16.9278 8.10647 17.0144 8.27903C17.8239 9.89292 18.6383 11.5048 19.4525 13.1163L19.4597 13.1306L19.9292 14.0599C19.9343 14.0701 19.9385 14.0809 19.9428 14.0917C19.9549 14.1226 19.9671 14.1538 20 14.1719V14.6386C19.9657 15.1397 19.7952 15.5968 19.5226 16.0145C19.0552 16.7305 18.4006 17.2017 17.5723 17.4332C17.4725 17.4611 17.3699 17.4687 17.2673 17.4763C17.1941 17.4818 17.121 17.4872 17.0488 17.5L16.3586 17.4992C16.3035 17.4858 16.2479 17.4728 16.1926 17.4599C16.0782 17.4333 15.9637 17.4066 15.8506 17.3756ZM9.87771 12.4721H4.65498L4.78735 12.2105C5.61214 10.5805 6.43291 8.95849 7.26614 7.31139L8.55493 9.85819L8.55814 9.86453L8.55975 9.86772L8.58049 9.9087L8.5886 9.92473C9.01774 10.7728 9.44644 11.62 9.87771 12.4721ZM15.0061 12.2708L14.126 14.0101H19.3454L19.157 13.6379C18.3507 12.0448 17.5484 10.4595 16.7355 8.85314C16.1591 9.99199 15.5896 11.1176 15.0209 12.2417L15.0117 12.2599L15.0061 12.2708ZM4.75215 12.972H10.0083C9.93025 14.1823 8.92022 15.2539 7.70671 15.426C6.19027 15.6409 4.85391 14.7068 4.55029 13.2201C4.51651 13.0547 4.58379 12.972 4.75215 12.972ZM16.7452 14.5133L14.2182 14.5137C14.0518 14.5137 13.9858 14.5974 14.0201 14.7647C14.3241 16.2464 15.6387 17.1682 17.1631 16.969C18.3248 16.8172 19.3475 15.7847 19.4715 14.6456C19.4832 14.5382 19.4656 14.5096 19.3509 14.5104C18.6908 14.5145 18.0307 14.5141 17.3707 14.5136L17.3684 14.5136C17.1606 14.5135 16.9529 14.5133 16.7452 14.5133Z"></path>
    </g>
</svg>