<svg xmlns="http://www.w3.org/2000/svg" role="presentation" viewBox="0 0 30 30" aria-labelledby="Telegram" class="icon icon-telegram social-white-black">
    <g fill="none">
        <path d="M15.5,2a13.52,13.52,0,0,1,2.11,26.88A20.23,20.23,0,0,1,15.5,29a20.23,20.23,0,0,1-2.11-.12A13.52,13.52,0,0,1,15.5,2Z" class="icon-path-stroke" style="fill:none;stroke:#fff;stroke-width:1.5px;"></path>
        <path d="M7.1,15q6.44-3,8.59-3.91C19.78,9.32,20.63,9,21.19,9a1,1,0,0,1,.57.18A.67.67,0,0,1,22,9.6a2.87,2.87,0,0,1,0,.61c-.22,2.46-1.18,8.43-1.67,11.19-.2,1.16-.61,1.55-1,1.59-.86.09-1.51-.59-2.34-1.17-1.29-.89-2-1.45-3.29-2.33-1.45-1-.51-1.57.32-2.48.22-.23,4-3.85,4.06-4.18a.33.33,0,0,0-.07-.28c-.08-.08-.21-.05-.3,0S15.5,14,11.48,16.86a2.73,2.73,0,0,1-1.59.62,9.76,9.76,0,0,1-2.29-.57c-.93-.32-1.66-.49-1.6-1C6,15.61,6.4,15.32,7.1,15Z" class="icon-path-fill" style="fill:#fff;opacity:0.4000000059604645;isolation:isolate;"></path>
    </g>
</svg>