<svg xmlns="http://www.w3.org/2000/svg" role="presentation" viewBox="0 0 33 31" aria-labelledby="Youtube" class="icon icon-youtube social-white-black">
<g fill="none">
    <path d="M31.6,8.71h0a24.63,24.63,0,0,1,.58,4.64c0,.8,0,1.52.06,2,0,.26,0,.47,0,.62v.21h0v.21c0,.14,0,.35,0,.61,0,.52,0,1.24-.07,2a26.59,26.59,0,0,1-.57,4.63A3.32,3.32,0,0,1,29.22,26a18.92,18.92,0,0,1-3,.36c-1.31.09-2.84.16-4.28.2s-2.82.06-3.82.07H16.5v0H14.86c-1,0-2.37,0-3.82-.08s-3-.1-4.28-.2a20.28,20.28,0,0,1-3-.37h0a3.33,3.33,0,0,1-2.38-2.3,26.1,26.1,0,0,1-.57-4.62c0-.8-.06-1.52-.07-2,0-.26,0-.47,0-.62v-.21h0V16c0-.15,0-.36,0-.62,0-.52,0-1.24.07-2A26.35,26.35,0,0,1,1.4,8.71,3.39,3.39,0,0,1,3.78,6.39a18.92,18.92,0,0,1,3-.36c1.31-.1,2.84-.16,4.28-.2s2.82-.06,3.82-.07H16.5v0h1.65c1,0,2.37,0,3.82.08s3,.1,4.28.2a18.64,18.64,0,0,1,3,.37h0A3.33,3.33,0,0,1,31.6,8.71Z" class="icon-path-stroke" style="fill:none;stroke:#fff;stroke-width:1.5px;"></path>
    <path d="M13.21,21v-9.6l8.59,4.8Z" class="icon-path-fill" style="fill:#fff;opacity:0.4000000059604645;isolation:isolate;"></path>
</g>
</svg>